<svg xmlns="http://www.w3.org/2000/svg" viewBox="0 0 43.726 38.978">
  <defs>
    <style>
      .cls-1 {
        fill: #fff;
      }
    </style>
  </defs>
  <g id="home" transform="translate(0.001 -27.797)">
    <g id="Groupe_32" data-name="Groupe 32" transform="translate(-0.001 27.798)">
      <g id="Groupe_31" data-name="Groupe 31">
        <path id="Tracé_22" data-name="Tracé 22" class="cls-1" d="M43.26,43.193,22.534,28.017a1.136,1.136,0,0,0-1.342,0L.464,43.193a1.136,1.136,0,1,0,1.342,1.833L21.862,30.342,41.918,45.026a1.136,1.136,0,0,0,1.342-1.833Z" transform="translate(0.001 -27.797)"/>
      </g>
    </g>
    <g id="Groupe_34" data-name="Groupe 34" transform="translate(4.821 45.283)">
      <g id="Groupe_33" data-name="Groupe 33">
        <path id="Tracé_23" data-name="Tracé 23" class="cls-1" d="M89.4,232.543a1.136,1.136,0,0,0-1.136,1.136v18.084H79.175v-9.871a5.681,5.681,0,1,0-11.362,0v9.871H58.724V233.679a1.136,1.136,0,1,0-2.272,0V252.9a1.136,1.136,0,0,0,1.136,1.136H68.949a1.135,1.135,0,0,0,1.132-1.048.858.858,0,0,0,0-.088V241.892a3.409,3.409,0,0,1,6.817,0V252.9a.834.834,0,0,0,0,.087,1.135,1.135,0,0,0,1.132,1.049H89.4a1.136,1.136,0,0,0,1.136-1.136v-19.22A1.136,1.136,0,0,0,89.4,232.543Z" transform="translate(-56.452 -232.543)"/>
      </g>
    </g>
  </g>
</svg>
