<svg xmlns="http://www.w3.org/2000/svg" viewBox="0 0 92.22 82.156">
  <defs>
    <style>
      .cls-1 {
        fill: #fff;
      }
    </style>
  </defs>
  <g id="monitor" transform="translate(0 -27.937)">
    <g id="Groupe_18" data-name="Groupe 18" transform="translate(0 27.937)">
      <g id="Groupe_17" data-name="Groupe 17" transform="translate(0 0)">
        <path id="Tracé_11" data-name="Tracé 11" class="cls-1" d="M86.653,27.937H5.567A5.574,5.574,0,0,0,0,33.5V89.488a5.574,5.574,0,0,0,5.567,5.567H33.352v4.051a6.743,6.743,0,0,1-6.735,6.735H20.494a2.126,2.126,0,0,0,0,4.252H71.726a2.126,2.126,0,0,0,0-4.252H65.6a6.743,6.743,0,0,1-6.735-6.735V95.056H86.653a5.574,5.574,0,0,0,5.567-5.567V33.5A5.573,5.573,0,0,0,86.653,27.937Zm-51.364,77.9A10.929,10.929,0,0,0,37.6,99.107V95.056H54.616v4.051a10.928,10.928,0,0,0,2.316,6.735Zm52.68-16.353A1.317,1.317,0,0,1,86.653,90.8H5.567a1.317,1.317,0,0,1-1.316-1.316V78.315H87.968Zm0-15.425H4.252V33.5a1.317,1.317,0,0,1,1.316-1.316H86.653A1.317,1.317,0,0,1,87.969,33.5V74.063Z" transform="translate(0 -27.937)"/>
      </g>
    </g>
  </g>
</svg>
