<svg xmlns="http://www.w3.org/2000/svg" viewBox="0 0 92.22 87.69">
  <defs>
    <style>
      .cls-1 {
        fill: #fff;
      }
    </style>
  </defs>
  <g id="paint-brush" transform="translate(-6.999 -24.575)">
    <g id="Groupe_16" data-name="Groupe 16" transform="translate(6.999 24.575)">
      <g id="Groupe_15" data-name="Groupe 15" transform="translate(0 0)">
        <path id="Tracé_10" data-name="Tracé 10" class="cls-1" d="M90.963,13.831c-2.646-2.645-7.951-1.136-16.7,4.751-7.431,5-16.343,12.576-25.1,21.329C36.191,52.888,26.325,65.629,23.04,73.5a11.435,11.435,0,0,0-1.68-.467,13.18,13.18,0,0,0-10.129,2.357,14.731,14.731,0,0,0-5.683,8.309A24.261,24.261,0,0,1,.519,93.156a2.153,2.153,0,0,0,.2,3.006,16.336,16.336,0,0,0,11.006,4.1,19.944,19.944,0,0,0,11.541-3.827,23.165,23.165,0,0,0,3.193-2.784,13.739,13.739,0,0,0,3.689-11.46c7.718-2.767,21.173-13,34.739-26.567,8.753-8.753,16.328-17.666,21.329-25.1C92.1,21.783,93.609,16.477,90.963,13.831ZM23.305,90.717a18.769,18.769,0,0,1-2.545,2.216c-5,3.566-11.11,3.979-15.552,1.233a28.44,28.44,0,0,0,4.514-9.412h0q.015-.056.027-.113a10.494,10.494,0,0,1,3.984-5.751,8.868,8.868,0,0,1,6.792-1.637A6.6,6.6,0,0,1,24.9,80.221C26.806,83.261,26.135,87.676,23.305,90.717Zm5.372-12.564a8,8,0,0,0-1.914-2.385,51.808,51.808,0,0,1,6.449-10.938l6.746,6.746C35.213,74.993,31.324,77.22,28.677,78.154Zm14.766-9.182-7.619-7.619c1.317-1.695,2.741-3.451,4.259-5.246l8.611,8.611Q45.961,67.026,43.443,68.972ZM81.981,29.09A180.537,180.537,0,0,1,61.839,52.582c-3.417,3.417-6.73,6.526-9.878,9.311L42.908,52.84c2.871-3.248,6-6.581,9.305-9.884A180.608,180.608,0,0,1,75.7,22.813c8.63-5.972,11.609-5.981,12.181-5.9C87.964,17.481,87.953,20.46,81.981,29.09Z" transform="translate(0.001 -12.575)"/>
      </g>
    </g>
  </g>
</svg>
