<svg xmlns="http://www.w3.org/2000/svg" viewBox="0 0 78.92 89.781">
  <defs>
    <style>
      .cls-1 {
        fill: #0c2c55;
      }

      .cls-2 {
        fill: none;
        stroke: #fff;
        stroke-width: 4px;
      }

      .cls-3 {
        fill: #fff;
      }
    </style>
  </defs>
  <g id="return" transform="translate(0 0.342)">
    <path id="Tracé_12" data-name="Tracé 12" class="cls-1" d="M2,23.571V66.114L39.46,87.478,76.92,66.114V23.571L39.46,2.3Z" transform="translate(0 -0.342)"/>
    <path id="Tracé_13" data-name="Tracé 13" class="cls-2" d="M2,23.571V66.114L39.46,87.478,76.92,66.114V23.571L39.46,2.3Z" transform="translate(0 -0.342)"/>
    <g id="return-2" data-name="return" transform="translate(14.556 -49.652)">
      <g id="Groupe_30" data-name="Groupe 30" transform="translate(0 76.97)">
        <path id="Tracé_18" data-name="Tracé 18" class="cls-3" d="M36.412,86.784h-33l6.938-7.776a1.224,1.224,0,1,0-1.826-1.629L.714,86.136a2.81,2.81,0,0,0,0,3.743l7.814,8.758a1.224,1.224,0,1,0,1.826-1.629L3.416,89.231h33a9.585,9.585,0,1,1,0,19.169H30.586a1.224,1.224,0,1,0,0,2.447h5.826a12.032,12.032,0,1,0,0-24.064Z" transform="translate(0 -76.97)"/>
      </g>
    </g>
  </g>
</svg>
